<?xml version="1.0" encoding="utf-8"?>
<svg version="1.2" baseProfile="tiny-ps" width="96" height="96" viewBox="0 0 96 96" xmlns="http://www.w3.org/2000/svg">
  <title>weihanyau</title>
  <rect width="96" height="96" fill="#ffffff"/>
  <circle cx="48" cy="48" r="40" fill="#0078d4"/>
  <path d="M48 30a18 18 0 1 0 0 36 18 18 0 1 0 0-36zm0 4a14 14 0 1 1 0 28 14 14 0 1 1 0-28zm-2 4v4h-4v4h4v4h4v-4h4v-4h-4v-4h-4zm-8 8v4h-4v4h4v4h4v-4h4v-4h-4v-4h-4zm16 0v4h-4v4h4v4h4v-4h4v-4h-4v-4h-4z" fill="#ffffff"/>
</svg>